<svg xmlns="http://www.w3.org/2000/svg" viewBox="0 0 64 64">
  <defs>
    <linearGradient id="bg" x1="0" y1="0" x2="1" y2="1">
      <stop offset="0%" stop-color="#101826" />
      <stop offset="100%" stop-color="#20354f" />
    </linearGradient>
    <linearGradient id="moon" x1="0" y1="0" x2="1" y2="1">
      <stop offset="0%" stop-color="#f9f871" />
      <stop offset="100%" stop-color="#f3b13d" />
    </linearGradient>
  </defs>

  <rect width="64" height="64" rx="14" fill="url(#bg)" />

  <g opacity="0.35" stroke="#8ab4f8" stroke-width="1">
    <path d="M16 12v40M28 12v40M40 12v40M52 12v40" />
    <path d="M12 16h40M12 28h40M12 40h40M12 52h40" />
  </g>

  <path
    d="M35 17a15 15 0 1 0 0 30a12 12 0 1 1 0-30Z"
    fill="url(#moon)"
  />

  <path
    d="M22 44h10V25h6l-11-8l-11 8h6Z"
    fill="#b388ff"
  />
</svg>
